<?xml version="1.0" encoding="utf-8"?>
<!DOCTYPE svg PUBLIC "-//W3C//DTD SVG 1.0//EN" "http://www.w3.org/TR/2001/REC-SVG-20010904/DTD/svg10.dtd">
<svg version="1.0" xmlns="http://www.w3.org/2000/svg" width="2100px" height="1492px" viewBox="0 0 2100 1492" preserveAspectRatio="xMidYMid meet">
 <g fill="#000000">
  <path d="M587.52 902.34 c-28.50 -5.18 -56.82 -16.92 -82.38 -34.02 -7.77 -5.18 -38.34 -27.98 -68.22 -50.77 -29.88 -22.97 -92.57 -70.63 -139.02 -106.21 -46.63 -35.58 -94.98 -72.36 -107.59 -81.86 l-22.80 -17.27 0 -8.98 0 -8.98 7.43 -2.25 c4.66 -1.38 18.31 -2.25 39.20 -2.25 28.15 0 33.50 0.52 45.59 3.97 28.15 8.12 39.55 15.54 149.56 97.57 27.98 20.90 49.05 35.75 46.63 33.16 -6.22 -6.56 -46.63 -43.35 -63.03 -56.99 -7.60 -6.39 -34.37 -25.21 -59.58 -41.79 -39.72 -26.25 -48.01 -32.64 -63.21 -47.84 -17.27 -17.44 -30.57 -36.44 -38.68 -55.61 -9.50 -22.11 -17.27 -62.34 -14.68 -76.16 1.04 -5.53 1.21 -5.70 9.50 -5.70 8.12 0 8.46 0.17 17.10 11.05 29.53 37.13 68.39 62.34 139.19 90.67 42.83 17.27 65.97 28.67 90.15 44.90 36.78 24.52 54.57 42.31 98.78 98.44 20.38 25.90 38.51 43.52 53.71 52.15 21.93 12.43 20.72 11.40 20.72 17.79 0 10.02 -1.21 11.40 -10.19 11.40 -10.88 0 -31.95 -5.53 -43.69 -11.23 -5.01 -2.59 -8.29 -3.97 -7.43 -2.94 3.80 3.97 33.50 17.44 44.04 20.21 13.30 3.45 30.57 3.80 43.69 0.86 5.18 -1.21 11.57 -1.73 13.99 -1.04 3.97 1.04 4.49 1.90 4.49 8.63 0 6.39 -0.86 8.29 -5.18 11.92 -7.08 6.04 -21.24 12.61 -33.68 15.89 -22.45 5.70 -65.80 2.42 -87.56 -6.74 -9.84 -4.14 -7.77 -1.90 4.32 4.84 14.16 7.77 32.12 13.99 47.32 16.41 32.12 5.01 70.29 -11.57 89.80 -39.20 23.83 -33.33 24.70 -76.68 2.07 -114.84 -15.20 -25.73 -40.93 -46.28 -133.67 -107.42 -56.64 -37.30 -74.43 -50.43 -89.28 -66.32 -26.77 -28.15 -39.55 -64.76 -36.96 -105.35 2.59 -42.14 19.34 -74.09 50.25 -96.02 21.93 -15.72 47.15 -24.18 78.58 -26.60 39.38 -3.11 72.71 2.42 102.75 17.10 36.27 17.62 59.58 44.90 69.42 81.17 4.32 15.89 4.32 57.85 0 76.50 -3.80 16.23 -7.43 20.55 -16.23 19.86 -6.04 -0.52 -6.74 -1.38 -17.10 -19 -21.07 -36.27 -49.05 -68.56 -73.05 -84.10 -25.21 -16.23 -54.92 -18.82 -78.75 -6.74 -16.23 8.29 -24.52 18.13 -29.36 34.88 -2.59 8.81 -2.59 10.53 0 20.38 7.43 29.19 21.93 42.48 107.94 99.47 36.61 24.18 75.12 50.43 85.66 58.37 44.56 33.33 69.08 69.60 78.75 116.40 5.01 24 3.80 69.77 -2.59 93.43 -17.62 66.66 -69.94 115.02 -137.47 126.76 -17.79 3.11 -61.83 3.11 -79.27 0z m73.05 -20.55 c67.35 -14.33 115.88 -65.45 127.97 -134.70 9.15 -52.15 -12.78 -108.97 -56.82 -147.66 -16.75 -14.68 -31.78 -25.39 -89.80 -63.55 -87.73 -57.85 -101.55 -68.56 -115.19 -88.94 -10.88 -16.23 -14.33 -30.22 -13.47 -53.71 0.52 -16.75 1.38 -20.72 5.35 -29.01 8.46 -17.62 27.46 -31.60 49.91 -36.96 13.99 -3.28 40.24 -3.28 55.78 0 32.29 6.74 66.49 35.06 95.85 78.92 5.70 8.29 10.71 14.33 11.23 13.47 1.90 -3.11 1.21 -29.88 -0.86 -38.86 -8.98 -36.96 -39.55 -68.56 -81 -83.76 -45.76 -16.75 -92.57 -12.09 -131.42 12.95 -21.41 13.64 -35.75 31.95 -44.56 56.47 -3.80 10.71 -4.49 15.54 -4.66 31.60 0 16.41 0.69 21.07 5.01 34.37 8.63 26.42 26.42 49.05 54.57 70.12 7.60 5.53 39.89 27.46 72.01 48.70 70.29 46.80 88.59 60.44 106.73 79.44 16.06 16.75 25.04 31.26 31.43 50.60 3.80 11.57 4.66 17.96 5.35 39.89 0.69 22.45 0.35 27.98 -2.94 40.58 -5.53 21.76 -12.78 34.88 -27.80 50.08 -15.02 15.20 -34.37 25.90 -54.40 30.05 -15.89 3.28 -46.11 3.28 -62.69 -0.17 -32.47 -6.56 -47.15 -15.72 -146.79 -90.49 -165.27 -124 -173.91 -129.87 -199.12 -137.12 -12.78 -3.80 -34.54 -6.39 -40.24 -4.84 -4.49 1.21 -3.28 2.42 23.49 22.80 15.37 11.74 51.12 39.03 79.10 60.44 179.09 137.29 201.88 154.39 219.33 164.75 41.62 24.70 87.04 33.33 128.66 24.52z m-58.20 -93.43 c-28.67 -10.53 -54.40 -29.88 -101.55 -75.99 -49.56 -48.53 -65.45 -60.44 -120.20 -89.11 -21.93 -11.57 -30.74 -15.02 -16.58 -6.56 22.62 13.64 53.19 38.86 103.96 86 55.78 51.64 87.90 73.74 122.62 84.10 14.16 4.32 21.93 5.35 11.74 1.55z m-61.48 -73.74 c-63.21 -65.97 -86.52 -84.97 -131.25 -107.42 -16.75 -8.46 -36.78 -16.92 -37.82 -15.89 -0.35 0.17 11.74 6.91 26.60 14.68 46.46 24.18 81.51 49.91 109.49 80.30 7.77 8.63 53.36 51.12 54.57 51.12 0.35 0 -9.50 -10.36 -21.59 -22.80z m-65.11 -96.37 c-1.73 -2.76 -33.68 -23.31 -49.22 -31.60 -8.12 -4.49 -29.01 -13.64 -46.63 -20.72 -17.62 -7.08 -36.61 -14.85 -42.14 -17.44 -5.70 -2.42 -10.53 -4.32 -10.88 -3.97 -0.86 1.04 32.12 16.06 56.30 25.56 30.05 11.92 60.44 27.29 77.89 39.38 16.06 11.23 16.23 11.23 14.68 8.81z m-171.83 -41.97 c0 -0.35 -2.59 -2.76 -5.53 -5.70 l-5.70 -5.01 5.01 5.70 c4.84 5.18 6.22 6.39 6.22 5.01z m-23.31 -24 c-10.53 -13.47 -11.23 -14.68 -11.23 -23.31 l0 -9.15 6.56 -0.17 6.39 0 -4.32 -2.94 c-2.42 -1.55 -10.88 -8.46 -19 -15.20 -8.12 -6.91 -14.85 -12.26 -15.20 -11.92 -1.21 1.04 10.36 27.63 16.75 38.51 6.04 10.19 28.32 38.34 30.39 38.34 0.52 0 -4.14 -6.39 -10.36 -14.16z"/>
  <path d="M1490.21 812.02 c-21.76 -5.70 -41.27 -21.41 -50.60 -40.58 -10.71 -21.93 -10.36 -18.13 -11.05 -154.91 -0.52 -137.99 -0.35 -141.27 10.02 -163.72 6.04 -12.95 20.90 -29.01 32.64 -35.58 27.80 -15.02 76.33 -15.20 104.48 -0.35 20.55 10.71 34.54 30.39 39.89 55.95 1.55 7.25 2.59 22.11 2.59 40.58 l0 29.19 -5.01 5.01 -5.01 5.01 -26.25 0 -26.25 0 -4.66 -4.84 c-4.66 -4.49 -4.84 -5.35 -5.87 -29.36 -1.21 -27.98 -4.32 -37.82 -13.99 -43.69 -7.25 -4.49 -10.36 -4.14 -17.27 1.90 -12.61 11.05 -12.26 7.25 -12.78 127.45 -0.52 109.14 0 120.20 5.87 132.80 3.11 6.39 11.40 12.61 16.75 12.61 5.53 0 12.78 -6.56 16.92 -15.02 3.28 -6.74 3.97 -11.92 4.84 -33.50 1.04 -24.35 1.21 -25.90 5.35 -30.05 4.14 -4.14 5.18 -4.32 30.22 -4.66 27.80 -0.52 31.60 0.35 35.23 8.46 2.94 6.39 2.42 58.37 -0.69 73.22 -7.25 34.37 -28.32 57.16 -59.93 64.59 -15.20 3.63 -50.77 3.28 -65.45 -0.52z m49.05 -18.48 c15.02 -3.11 30.91 -11.74 38.51 -20.55 7.25 -8.46 15.02 -24.52 17.96 -36.96 2.42 -10.71 3.28 -45.94 1.21 -48.18 -0.86 -0.69 -7.43 -1.21 -14.68 -1.21 -17.27 0.35 -17.62 0.69 -17.62 27.46 0 41.97 -10.53 56.13 -41.79 56.13 -16.58 0 -25.39 -3.80 -31.95 -13.64 -9.15 -13.47 -9.15 -13.64 -9.15 -146.10 0 -133.32 0 -132.11 9.50 -146.10 6.74 -9.50 16.23 -13.64 32.12 -13.64 29.70 0.17 41.27 15.20 41.27 53.54 0 10.36 0.69 20.72 1.73 23.14 1.55 4.32 2.25 4.49 15.54 4.49 17.27 0 17.27 0 15.54 -27.63 -1.73 -27.80 -6.91 -41.27 -21.41 -56.64 -16.41 -17.44 -45.59 -25.04 -70.63 -18.48 -28.67 7.43 -48.18 28.50 -54.57 59.24 -1.21 6.22 -1.90 45.76 -1.90 122.62 0 123.31 0.17 124.69 9.84 145.07 8.98 19 30.05 34.37 52.33 38.17 13.47 2.07 15.02 2.07 28.15 -0.69z"/>
  <path d="M1694.68 811.85 c-29.01 -8.29 -50.25 -30.91 -58.72 -62.69 -2.59 -9.50 -2.94 -25.39 -3.45 -131.42 -0.52 -99.30 -0.17 -122.96 1.73 -134.70 6.74 -37.48 24 -59.75 55.78 -71.50 15.89 -5.87 49.05 -7.43 67.01 -3.28 33.85 7.94 56.47 31.78 64.07 67.52 3.63 17.62 3.80 254.90 0 272.34 -6.91 32.99 -28.32 56.13 -59.75 64.42 -13.64 3.63 -52.85 3.28 -66.66 -0.69z m51.12 -18.31 c15.02 -3.63 26.60 -10.19 36.44 -21.07 9.50 -10.36 14.16 -19.17 18.48 -35.06 2.76 -10.19 3.11 -20.90 2.94 -125.21 0 -126.07 -0.17 -126.76 -11.40 -147.83 -21.76 -41.10 -79.10 -50.08 -113.46 -17.96 -10.02 9.50 -15.54 18.13 -21.24 33.68 l-3.97 11.23 -0.52 113.29 c-0.35 96.19 -0.17 115.19 2.07 125.90 7.25 34.37 27.63 56.30 58.72 63.03 13.99 3.11 18.82 3.11 31.95 0z"/>
  <path d="M1708.84 767.29 c-8.29 -4.32 -14.16 -10.71 -18.48 -20.21 l-3.97 -8.81 0 -127.97 0 -127.80 5.18 -10.19 c3.45 -6.91 7.77 -11.92 12.61 -15.54 7.25 -4.84 8.46 -5.18 24.52 -5.18 16.06 0 17.44 0.35 24.35 5.18 9.33 6.56 14.68 17.10 17.10 32.99 1.21 7.94 1.73 51.98 1.38 128.66 -0.52 108.28 -0.69 116.92 -3.80 125.03 -7.43 20.03 -17.27 26.77 -39.38 26.77 -9.67 -0.17 -16.06 -1.04 -19.51 -2.94z m26.77 -20.38 c2.59 -1.38 6.39 -5.01 8.29 -8.12 7.08 -11.74 7.60 -19.34 6.91 -134.36 -0.52 -109.32 -0.52 -109.66 -4.32 -116.74 -4.32 -8.12 -13.13 -16.23 -17.44 -16.23 -6.56 0 -14.51 7.08 -19 16.92 l-4.66 9.84 0 112.25 0 112.25 4.66 9.84 c2.94 6.56 6.56 11.05 10.36 13.47 6.74 4.14 8.63 4.32 15.20 0.86z"/>
  <path d="M1356.37 810.99 c-13.30 -5.87 -19 -19.51 -17.62 -41.62 1.04 -14.33 4.66 -22.11 13.30 -27.98 10.19 -6.91 39.72 -7.43 50.95 -0.86 12.09 7.08 16.92 24.18 13.30 46.46 -3.28 20.55 -11.92 26.42 -38.34 26.42 -9.67 -0.17 -18.31 -1.04 -21.59 -2.42z m33.16 -20.90 c8.81 -6.04 9.50 -21.07 1.38 -28.67 -3.45 -3.28 -6.39 -4.14 -12.78 -4.14 -6.39 0 -9.33 0.86 -12.78 4.14 -8.46 8.12 -7.43 23.49 2.25 28.67 5.87 3.28 17.44 3.28 21.93 0z"/>
  <path d="M815.48 806.50 c-5.35 -5.01 -5.01 -11.40 3.97 -65.97 8.12 -49.74 28.67 -177.88 41.62 -260.25 4.14 -26.94 8.98 -51.64 10.53 -55.09 5.01 -10.71 11.92 -12.43 48.87 -12.43 36.09 0 44.04 1.90 49.05 11.92 1.55 2.76 5.53 22.11 8.81 42.83 3.28 20.72 10.19 63.73 15.37 95.50 5.18 31.78 13.30 83.07 18.31 113.98 4.84 30.91 10.71 67.70 13.13 82.03 5.18 32.29 5.35 42.83 0.69 47.49 -3.11 3.11 -5.70 3.45 -30.05 3.45 -26.08 0 -26.77 -0.17 -31.95 -4.32 -6.56 -5.70 -6.39 -5.18 -13.13 -45.59 l-5.53 -33.85 -24.35 -0.52 c-13.47 -0.17 -24.52 0 -24.52 0.52 0 7.25 -10.88 71.32 -12.78 74.78 -3.97 7.77 -9.15 8.98 -37.99 8.98 -24 0 -26.60 -0.35 -30.05 -3.45z m45.07 -17.10 c2.25 -0.86 4.66 -2.76 5.18 -4.14 0.52 -1.38 3.45 -19 6.39 -39.38 3.11 -20.38 6.39 -37.99 7.25 -39.03 2.07 -2.59 78.40 -3.28 82.20 -0.69 1.38 0.86 4.66 15.89 8.46 39.55 3.45 21.07 7.08 39.55 8.29 41.10 1.38 2.07 5.70 3.11 15.02 3.80 7.08 0.35 13.47 0.17 13.99 -0.69 0.69 -1.38 -8.46 -60.62 -41.10 -263.19 -14.68 -91.70 -13.64 -86.52 -18.13 -90.15 -3.28 -2.59 -7.25 -3.11 -26.25 -3.11 -28.15 0 -31.43 1.38 -34.02 14.16 -1.04 5.01 -3.80 22.45 -6.22 38.51 -2.42 16.23 -7.94 50.77 -12.26 76.85 -4.14 26.08 -10.02 62.69 -12.95 81.17 -2.76 18.48 -8.98 58.03 -13.82 87.73 -4.84 29.88 -8.29 55.26 -7.77 56.64 1.04 2.76 18.82 3.45 25.73 0.86z"/>
  <path d="M884.21 670.58 c0 -10.71 24.70 -187.20 26.60 -190.31 1.38 -2.25 17.62 -2.59 19 -0.52 0.52 0.86 3.63 20.38 7.08 43.69 3.45 23.14 9.84 64.93 13.99 92.91 4.32 27.98 7.60 53.71 7.25 56.99 l-0.52 6.22 -36.61 0.52 -36.78 0.35 0 -9.84z m50.95 -15.54 c-2.59 -14.51 -12.95 -85.31 -12.95 -88.42 0 -2.07 -0.69 -3.63 -1.38 -3.63 -1.04 0 -14.33 87.73 -14.16 94.64 0 1.55 4.14 2.07 14.68 2.07 l14.68 0 -0.86 -4.66z"/>
  <path d="M1048.79 806.50 c-3.80 -2.25 -6.04 -5.35 -7.43 -10.19 -1.21 -4.66 -1.55 -64.76 -1.38 -191 l0.52 -184.27 4.84 -4.14 c4.66 -3.97 5.87 -4.14 29.70 -4.14 26.77 0 32.29 1.21 35.58 7.25 1.55 2.94 2.07 40.07 1.73 161.13 -0.17 86.35 0.17 158.54 0.69 160.26 1.21 2.59 4.84 2.94 42.48 2.94 l41.27 0 5.35 4.84 c5.18 4.66 5.53 5.87 6.39 19 1.21 20.03 -0.86 32.64 -5.70 37.65 l-4.14 4.14 -72.19 0 c-68.56 0 -72.53 -0.17 -77.71 -3.45z m129 -16.92 l9.50 -1.21 0.52 -9.67 c0.35 -6.56 -0.17 -10.19 -1.90 -11.57 -1.55 -1.38 -16.75 -2.25 -47.15 -2.42 l-44.73 -0.52 -0.86 -164.93 -0.86 -164.93 -15.54 0 -15.54 0 -0.52 175.12 c-0.17 123.31 0.17 175.81 1.55 177.36 1.04 1.21 3.97 2.59 6.39 2.94 7.77 1.21 98.96 1.04 109.14 -0.17z"/>
  <path d="M1238.59 804.77 l-5.18 -5.01 -0.86 -61.83 -0.86 -61.83 -12.26 -41.45 c-6.91 -22.80 -21.07 -70.98 -31.43 -107.07 -10.53 -36.09 -20.90 -71.67 -23.31 -79.10 -5.18 -16.92 -5.53 -27.46 -0.52 -32.47 3.28 -3.28 5.18 -3.45 33.50 -2.94 29.70 0.52 30.22 0.52 34.54 5.01 3.80 3.63 6.56 12.61 17.44 55.26 7.08 27.98 14.16 56.47 15.72 63.38 1.55 6.91 3.45 11.92 4.14 11.23 0.69 -0.69 8.29 -28.84 17.10 -62.52 8.63 -33.68 16.58 -62.69 17.44 -64.59 3.45 -6.39 11.92 -8.12 40.41 -8.12 24.52 0 27.11 0.35 30.22 3.45 5.18 5.18 4.32 15.20 -3.63 41.45 -3.80 12.78 -14.68 50.08 -24.18 82.89 -9.67 32.81 -22.80 77.37 -29.36 99.13 l-11.92 39.55 0 60.27 0 60.44 -5.35 5.01 -5.35 5.01 -25.56 0 -25.56 0 -5.18 -5.18z m46.28 -77.71 l0.86 -61.31 10.71 -34.54 c5.70 -19 16.58 -55.09 23.83 -80.30 7.25 -25.21 17.96 -61.31 23.49 -80.13 5.53 -19 10.19 -35.23 10.19 -35.92 0 -0.69 -6.22 -1.38 -13.64 -1.38 -10.19 0 -14.51 0.69 -16.41 2.76 -1.55 1.38 -2.76 2.94 -2.76 3.45 0 0.35 -4.14 16.75 -9.33 36.44 -5.18 19.86 -14.51 56.47 -20.90 81.69 -6.22 25.21 -12.09 47.49 -12.95 49.74 -1.38 3.11 -2.94 3.80 -9.50 3.80 -6.56 0 -7.77 -0.52 -8.63 -3.80 -7.77 -34.88 -42.66 -169.76 -44.04 -171.49 -1.55 -1.90 -6.04 -2.59 -16.58 -2.59 -7.94 0 -14.51 0.52 -14.51 1.21 0 1.38 36.27 126.24 60.62 208.96 l6.74 22.80 0 58.03 c0 37.48 0.69 59.24 1.90 61.48 1.55 3.11 3.28 3.28 15.89 2.94 l14.16 -0.52 0.86 -61.31z"/>
  <path d="M654.52 741.04 c-31.43 -6.04 -54.92 -25.04 -92.22 -74.95 -11.23 -15.20 -27.46 -34.88 -36.09 -43.87 -23.83 -24.87 -56.47 -48.01 -87.04 -61.83 -13.82 -6.04 -16.41 -9.15 -15.72 -17.44 0.86 -10.71 5.01 -11.92 41.97 -11.92 25.04 0 33.50 0.69 43.17 3.28 27.80 7.43 57.68 25.21 80.30 47.66 16.23 16.41 24.52 27.29 46.80 62.52 22.80 36.09 39.89 54.23 62 65.11 7.94 3.97 15.20 8.12 15.89 9.33 2.25 3.45 1.55 12.78 -1.21 15.02 -7.25 6.04 -41.10 10.19 -57.85 7.08z m6.56 -26.60 c-13.64 -11.05 -26.08 -26.94 -46.80 -59.58 -10.19 -16.23 -23.83 -35.58 -30.22 -43 -28.50 -32.81 -62.86 -53.71 -98.78 -60.10 -7.08 -1.38 -13.13 -2.07 -13.47 -1.90 -0.17 0.35 5.18 3.97 12.09 7.94 36.09 21.41 63.73 48.01 98.61 95.33 25.04 34.02 41.79 50.77 59.41 59.41 7.43 3.80 21.76 8.63 26.94 9.15 0.69 0.17 -2.76 -3.11 -7.77 -7.25z"/>
 </g>
 <g fill="#ffffff">
  <path d="M0 746.05 l0 -746.05 1050 0 1050 0 0 746.05 0 746.05 -1050 0 -1050 0 0 -746.05z m661.60 151.11 c67.52 -11.74 120.02 -60.27 137.47 -126.76 6.22 -23.66 7.43 -60.10 2.59 -83.07 -9.67 -46.97 -34.19 -83.07 -78.75 -116.40 -10.53 -7.94 -49.39 -34.37 -86.35 -58.72 -57.16 -37.82 -69.25 -46.63 -82.03 -59.41 -17.10 -16.92 -23.49 -27.98 -26.60 -46.11 -1.73 -9.67 -1.55 -13.13 1.04 -22.62 1.55 -6.22 5.18 -14.51 7.94 -18.65 16.58 -24.18 58.89 -33.16 93.95 -20.03 28.15 10.53 65.11 48.87 91.01 94.64 5.01 8.81 9.67 16.41 10.53 16.92 3.28 1.90 8.29 -6.74 11.40 -19.51 4.14 -18.13 4.14 -50.60 0 -66.14 -16.41 -60.44 -73.74 -98.61 -148 -98.61 -47.49 0 -85.14 15.02 -112.25 44.73 -22.45 24.52 -34.19 63.55 -29.53 97.57 5.70 40.24 25.21 71.15 63.03 99.47 8.63 6.56 36.78 25.56 62.34 42.48 111.39 73.40 131.94 92.05 145.58 133.32 3.80 11.57 4.32 16.58 4.49 35.92 0 20.72 -0.35 23.66 -5.18 37.48 -12.61 35.40 -39.72 58.03 -77.89 64.76 -28.32 5.01 -59.58 -2.07 -90.32 -20.38 -8.12 -4.84 -56.99 -40.41 -108.80 -79.27 -157.15 -117.43 -162.85 -121.23 -192.73 -129.87 -11.57 -3.28 -17.62 -3.97 -40.41 -3.97 -30.91 0.17 -41.45 2.25 -41.45 8.29 0 2.94 5.70 8.12 22.80 21.07 12.61 9.50 60.96 46.28 107.59 81.86 46.46 35.58 109.14 83.24 139.02 106.21 29.88 22.80 60.44 45.59 68.22 50.77 25.56 17.10 53.88 28.84 82.38 34.02 17.10 3.11 51.46 3.11 68.91 0z m888.87 -89.80 c31.60 -7.43 52.67 -30.22 59.93 -64.59 3.11 -14.51 3.63 -56.64 0.69 -62.86 -3.28 -7.43 -7.60 -8.63 -29.88 -8.29 -19.86 0.17 -21.07 0.52 -25.21 4.49 -4.14 4.14 -4.32 5.70 -5.35 30.05 -1.04 28.15 -4.14 38.34 -13.30 44.90 -11.74 8.12 -28.84 3.97 -35.23 -8.63 -6.22 -12.26 -6.74 -22.80 -6.22 -138.33 0.52 -125.90 0.17 -121.41 12.78 -132.63 4.84 -4.14 7.60 -5.18 14.16 -5.18 10.71 0 17.96 4.66 22.62 14.33 3.11 6.56 3.97 12.09 4.84 32.64 1.04 24 1.21 24.87 5.87 29.36 4.66 4.84 5.18 4.84 25.73 4.84 20.90 0 21.07 0 26.08 -5.01 l5.01 -5.01 0 -24 c0 -27.46 -2.59 -42.31 -10.36 -58.37 -12.95 -27.29 -43.17 -44.04 -79.10 -44.04 -14.33 0 -35.58 5.18 -47.15 11.40 -11.74 6.56 -26.60 22.62 -32.64 35.58 -10.36 22.45 -10.53 26.25 -10.02 158.54 0.69 131.08 0.52 127.97 11.05 149.73 9.33 19.17 28.84 34.88 50.60 40.58 14.33 3.63 40.58 3.97 55.09 0.52z m205.68 0 c31.43 -8.29 52.85 -31.43 59.75 -64.42 3.80 -17.44 3.63 -244.37 0 -261.98 -9.84 -45.94 -44.38 -72.01 -92.39 -69.42 -37.13 2.07 -65.97 21.59 -77.71 52.67 -8.46 22.11 -8.81 30.05 -8.12 153.53 0.52 101.20 0.86 116.74 3.45 126.24 8.46 31.78 29.70 54.40 58.72 62.69 13.47 3.80 43.17 4.32 56.30 0.69z m-359.04 -3.11 c10.36 -5.53 14.16 -13.30 14.33 -29.53 0 -14.51 -3.11 -21.93 -12.26 -27.98 -10.36 -7.08 -30.57 -7.25 -41.62 -0.52 -20.21 12.26 -17.62 50.08 3.97 59.58 8.81 3.80 26.94 3.11 35.58 -1.55z m-741.74 -2.76 c11.57 -4.14 26.25 -13.13 29.19 -17.96 2.76 -4.49 -1.38 -6.39 -9.15 -4.14 -10.02 2.76 -39.38 2.07 -51.98 -1.21 -14.68 -3.97 -39.03 -16.23 -55.61 -28.15 -14.85 -10.71 -50.95 -43.17 -65.11 -58.54 -29.19 -31.60 -62.69 -55.78 -115.88 -83.76 -35.23 -18.48 -58.72 -33.33 -72.19 -45.94 l-8.12 -7.43 19.86 9.33 c10.88 5.01 31.95 14.16 46.63 20.03 72.53 29.19 101.20 49.91 170.11 122.79 30.39 32.12 53.02 46.80 81.17 52.85 11.40 2.59 13.47 2.59 14.85 0.35 2.42 -3.97 1.04 -5.53 -11.40 -12.43 -23.66 -12.95 -38.34 -26.77 -65.63 -61.65 -38.51 -49.56 -58.72 -69.42 -94.64 -93.43 -24.18 -16.23 -47.32 -27.63 -90.15 -44.90 -70.81 -28.32 -109.66 -53.54 -139.19 -90.67 -13.64 -17.10 -17.96 -14.68 -15.37 8.46 4.66 41.27 22.11 77.02 52.50 107.59 15.02 15.20 23.66 21.59 63.21 47.84 51.46 34.02 58.54 39.55 110.35 87.21 20.38 18.65 42.83 38.86 50.08 44.90 30.74 25.56 62.86 43.69 89.28 50.43 18.65 4.66 51.81 3.97 67.18 -1.55z m215.87 1.21 c2.59 -1.21 5.70 -4.14 7.08 -6.91 1.90 -3.45 12.78 -67.52 12.78 -74.78 0 -0.52 13.30 -0.69 29.70 -0.52 l29.53 0.52 5.53 33.85 c6.74 40.41 6.56 39.89 13.13 45.59 5.01 4.14 6.22 4.32 26.77 4.32 19.17 0 21.76 -0.35 24.87 -3.45 4.32 -4.32 4.32 -5.87 -0.69 -37.13 -2.42 -14.33 -8.29 -51.12 -13.13 -82.03 -5.01 -30.91 -13.13 -82.20 -18.31 -113.98 -5.18 -31.78 -12.09 -74.78 -15.37 -95.50 -3.28 -20.72 -7.25 -40.07 -8.81 -42.83 -4.84 -9.50 -13.30 -11.92 -43.87 -11.92 -31.43 0 -38.86 2.25 -43.69 12.43 -1.55 3.45 -6.39 28.15 -10.53 55.09 -12.95 82.38 -33.50 210.52 -41.62 260.25 -4.32 25.90 -7.77 48.18 -7.77 49.56 0 1.38 1.73 3.97 3.80 6.04 3.28 3.11 6.04 3.45 24.87 3.45 12.78 0 23.14 -0.86 25.73 -2.07z m326.40 -2.07 c4.66 -4.66 7.08 -18.82 5.53 -32.64 -0.86 -7.08 -2.25 -10.02 -6.39 -13.64 l-5.18 -4.84 -41.27 0 c-37.30 0 -41.27 -0.35 -42.31 -2.94 -0.69 -1.55 -1.04 -73.74 -0.86 -160.44 0.17 -117.09 -0.35 -158.36 -1.90 -161.13 -2.94 -5.70 -8.81 -7.08 -30.22 -7.08 -18.31 0 -20.03 0.35 -24.52 4.14 l-4.84 4.14 -0.52 179.09 c-0.17 122.62 0.17 181.16 1.38 185.82 1.38 4.84 3.63 7.94 7.43 10.19 5.18 3.28 9.15 3.45 72.53 3.45 l67.01 0 4.14 -4.14z m97.40 -0.86 l5.35 -5.01 0 -60.44 0 -60.27 11.92 -39.55 c6.56 -21.76 19.69 -66.32 29.36 -99.13 9.50 -32.81 20.38 -70.12 24.18 -82.89 3.97 -12.78 7.08 -24.18 7.08 -25.39 0 -1.21 -1.55 -3.80 -3.45 -5.70 -3.11 -3.11 -5.70 -3.45 -25.04 -3.45 -22.97 0 -31.95 2.07 -35.06 8.12 -1.73 3.11 -31.95 118.30 -36.61 139.19 -1.21 5.35 -2.76 9.84 -3.45 9.84 -0.52 0 -3.63 -10.36 -6.56 -22.80 -3.11 -12.61 -11.40 -45.76 -18.48 -73.74 -16.06 -63.73 -12.95 -59.58 -44.21 -60.27 -37.99 -1.04 -37.99 -1.21 -26.94 36.09 4.49 14.68 15.02 50.77 23.49 80.13 8.46 29.53 21.07 72.19 27.98 94.98 l12.26 41.45 0.86 61.83 0.86 61.83 5.18 5.01 c5.01 5.18 5.18 5.18 25.56 5.18 20.03 0 20.38 0 25.73 -5.01z m-598.05 -66.66 c9.50 -2.76 13.30 -5.87 11.40 -8.98 -0.69 -1.21 -7.94 -5.35 -15.89 -9.33 -22.11 -10.88 -39.20 -29.01 -62 -65.11 -22.28 -35.23 -30.57 -46.11 -46.80 -62.52 -21.93 -21.76 -49.56 -38.68 -76.85 -46.80 -15.20 -4.49 -50.77 -6.39 -65.11 -3.45 -17.79 3.80 -17.10 9.67 2.59 18.31 30.57 13.82 63.21 36.96 87.04 61.83 8.63 8.98 24.87 28.67 36.09 43.87 22.11 29.53 45.25 54.05 58.20 61.65 23.83 13.99 46.80 17.44 71.32 10.53z"/>
  <path d="M601.85 889.39 c-27.46 -4.32 -51.81 -13.13 -75.12 -26.94 -17.27 -10.36 -46.11 -31.95 -208.96 -156.81 -22.28 -17.10 -60.44 -46.28 -84.62 -64.59 -24.18 -18.48 -44.21 -34.02 -44.56 -34.71 -0.86 -2.42 29.53 -3.80 43.69 -1.90 17.44 2.25 29.70 5.70 43 12.43 18.48 9.33 39.38 24.35 179.26 129.18 99.65 74.78 114.33 83.93 146.79 90.49 40.93 8.46 79.61 -2.42 106.73 -29.88 22.97 -23.14 32.12 -49.05 30.57 -85.66 -1.38 -35.58 -11.40 -58.89 -36.61 -85.14 -18.13 -19 -36.44 -32.64 -106.73 -79.44 -32.12 -21.24 -64.42 -43.17 -72.01 -48.70 -28.15 -21.07 -45.94 -43.69 -54.57 -70.12 -4.49 -13.99 -5.01 -17.44 -5.01 -39.55 0 -21.76 0.52 -25.39 4.66 -36.78 17.44 -48.18 60.79 -76.85 120.54 -79.27 46.46 -2.07 88.42 13.13 117.43 42.48 25.21 25.56 35.40 55.95 30.91 93.26 -2.94 25.21 -3.11 25.39 -12.26 9.50 -22.45 -38.86 -55.44 -73.40 -82.89 -86.87 -35.40 -17.44 -79.44 -12.61 -105.17 11.40 -23.14 21.59 -25.21 59.75 -5.01 89.98 13.64 20.38 27.46 31.09 115.19 88.94 77.20 50.77 91.18 61.65 111.74 86.52 13.47 16.23 26.94 42.31 32.12 62.34 5.18 19.51 6.39 52.15 2.76 72.71 -12.09 69.25 -60.27 120.02 -127.97 134.70 -14.85 3.28 -49.91 4.49 -63.90 2.42z"/>
  <path d="M1505.92 799.42 c-22.28 -3.80 -43.35 -19.17 -52.33 -38.17 -9.67 -20.55 -9.84 -21.41 -9.84 -150.25 0 -80.65 0.69 -121.58 1.90 -127.80 4.84 -23.14 19.51 -43.87 37.48 -53.02 23.49 -11.92 58.72 -11.74 82.89 0.52 16.06 8.12 30.22 27.98 34.54 48.53 2.76 12.61 4.14 48.18 2.07 53.36 -1.55 4.49 -1.90 4.49 -20.72 4.49 -18.82 0 -19.17 0 -20.72 -4.49 -1.04 -2.42 -1.73 -12.78 -1.73 -23.14 0 -20.72 -2.59 -31.43 -9.84 -41.27 -12.61 -16.58 -41.10 -15.89 -53.19 1.38 -9.50 13.99 -9.50 13.13 -9.50 140.92 0 126.76 0 127.45 9.15 140.92 11.74 17.44 39.55 18.31 53.54 1.55 7.25 -8.46 9.84 -20.38 9.84 -44.04 0 -27.98 -0.35 -27.46 22.97 -27.46 10.02 -0.17 18.82 0.52 19.69 1.21 2.25 2.42 1.38 47.49 -1.04 58.20 -3.11 12.78 -10.71 28.67 -18.13 37.30 -15.02 17.62 -46.46 26.25 -77.02 21.24z"/>
  <path d="M1708.67 798.73 c-31.09 -6.74 -51.46 -28.67 -58.72 -63.03 -2.25 -10.71 -2.42 -30.22 -2.07 -131.08 l0.52 -118.47 3.97 -11.23 c5.70 -15.37 11.23 -24.18 20.90 -33.33 14.68 -13.82 32.47 -20.21 55.44 -20.21 40.07 0 67.52 21.24 77.20 59.93 2.59 10.36 2.94 25.21 2.94 130.90 0.17 109.32 0 120.02 -2.94 130.39 -4.32 15.89 -8.98 24.70 -18.48 35.06 -18.31 20.03 -47.66 27.80 -78.75 21.07z m35.58 -37.13 c8.12 -4.14 14.16 -11.74 18.31 -23.31 3.11 -7.94 3.28 -16.75 3.80 -119.85 0.35 -73.05 -0.17 -115.53 -1.38 -123.48 -2.42 -15.89 -7.77 -26.42 -17.10 -32.99 -6.39 -4.49 -8.81 -5.18 -19.17 -5.18 -10.36 0 -12.78 0.69 -19.34 5.18 -4.84 3.63 -9.15 8.63 -12.61 15.54 l-5.18 10.19 0 122.62 0 122.79 3.97 8.81 c6.91 15.20 17.96 22.97 32.81 23.14 5.87 0 11.57 -1.21 15.89 -3.45z"/>
  <path d="M1718.34 752.62 c-6.39 -3.28 -8.81 -5.87 -12.95 -14.33 l-5.18 -10.36 0 -117.43 0 -117.43 4.66 -9.84 c5.53 -12.09 12.61 -16.92 24.18 -16.92 9.50 0 16.75 5.01 22.62 16.23 3.80 7.08 3.80 7.25 4.32 121.92 0.69 120.37 0.17 127.80 -6.91 139.54 -6.56 10.88 -19.34 14.33 -30.74 8.63z"/>
  <path d="M1371.22 798.03 c-13.99 -2.76 -18.13 -9.33 -16.92 -26.08 0.69 -8.46 1.55 -11.40 5.35 -15.20 4.32 -4.32 5.87 -4.66 18.48 -4.66 12.61 0 14.16 0.35 18.48 4.66 8.81 8.81 7.08 34.19 -2.59 39.03 -4.49 2.42 -16.06 3.45 -22.80 2.25z"/>
  <path d="M602.37 796.13 c-41.45 -7.60 -76.16 -29.53 -139.54 -88.25 -53.54 -49.74 -78.75 -70.29 -109.66 -89.63 -47.84 -30.05 -68.04 -45.59 -83.07 -64.07 -20.21 -25.04 -29.53 -46.28 -37.65 -86.52 -0.35 -1.55 6.39 4.32 15.20 12.95 34.88 35.06 56.99 47.49 153.53 86.69 59.41 24 102.24 58.03 148 117.09 13.30 17.27 27.46 35.23 31.60 39.89 3.97 4.84 5.70 7.77 3.80 6.56 -6.74 -3.63 -24.87 -20.72 -48.18 -45.42 -55.26 -59.06 -89.63 -82.72 -159.92 -110.70 -28.50 -11.23 -62.86 -28.15 -81.86 -40.07 -8.29 -5.35 -16.23 -9.67 -17.62 -9.67 -8.98 0 6.56 22.97 28.32 41.97 19 16.75 36.96 28.32 72.36 46.80 63.38 33.33 77.20 43.35 128.31 93.43 20.38 20.03 44.21 41.62 52.67 48.01 27.29 20.38 55.44 32.64 81.51 35.58 11.40 1.21 11.57 1.38 6.56 3.45 -6.56 2.76 -33.68 3.97 -44.38 1.90z"/>
  <path d="M829.12 794.58 c-1.90 -1.21 -1.21 -8.29 3.97 -40.93 3.63 -21.76 10.53 -66.32 15.72 -99.13 5.18 -32.81 12.43 -78.58 16.23 -101.89 3.80 -23.31 8.81 -55.44 11.40 -71.67 2.42 -16.06 5.18 -33.50 6.22 -38.51 2.59 -13.30 5.18 -14.16 39.20 -14.16 24 0 28.15 0.35 31.43 3.11 4.32 3.63 3.97 1.04 30.05 164.41 32.64 203.44 31.78 196.88 29.19 198.77 -1.38 1.21 -8.63 1.73 -19.69 1.21 -13.99 -0.52 -17.96 -1.21 -19.69 -3.63 -1.21 -1.55 -4.84 -20.21 -8.29 -41.27 -3.80 -23.66 -7.08 -38.68 -8.46 -39.55 -3.80 -2.59 -69.77 -1.90 -71.84 0.69 -0.86 1.04 -4.14 18.65 -7.25 39.03 -2.94 20.38 -5.87 37.99 -6.39 39.38 -0.52 1.38 -2.94 3.28 -5.18 4.14 -5.35 1.90 -33.33 2.07 -36.61 0z m123.31 -121.06 c0.52 -0.86 -2.42 -24.35 -6.74 -52.15 -4.14 -27.80 -10.53 -69.60 -13.99 -92.74 -3.45 -23.31 -6.56 -42.83 -7.08 -43.69 -1.21 -2.07 -7.25 -1.73 -8.63 0.52 -1.21 2.07 -26.60 177.88 -26.60 185.13 l0 4.66 30.91 0 c17.79 0 31.43 -0.69 32.12 -1.73z"/>
  <path d="M899.75 663.68 c-0.17 -5.18 19.69 -140.40 20.55 -140.40 0.69 0 3.63 17.27 6.74 38.51 3.11 21.07 7.94 52.85 10.53 70.81 l4.84 32.29 -21.41 0 c-11.57 0 -21.24 -0.52 -21.24 -1.21z"/>
  <path d="M1063.47 794.93 c-2.42 -0.35 -5.35 -1.73 -6.39 -2.94 -1.38 -1.55 -1.73 -55.61 -1.55 -182.54 l0.52 -180.30 20.72 0 20.72 0 0.86 164.93 0.86 164.93 44.73 0.52 c30.22 0.17 45.59 1.04 47.15 2.42 1.73 1.38 2.25 5.87 1.90 16.75 l-0.52 14.85 -9.50 1.21 c-10.19 1.21 -111.74 1.38 -119.51 0.17z"/>
  <path d="M1248.77 791.13 c-1.21 -2.25 -1.90 -24.18 -1.90 -61.48 l0 -58.03 -6.74 -22.80 c-3.80 -12.61 -11.57 -39.03 -17.27 -59.06 -5.87 -19.86 -18.65 -63.90 -28.50 -97.57 -9.84 -33.68 -17.62 -61.83 -17.10 -62.52 0.35 -0.86 9.84 -1.38 21.07 -1.38 15.72 0 20.90 0.52 22.62 2.59 1.38 1.73 36.27 136.60 44.04 171.49 0.52 2.07 2.07 3.80 3.45 3.80 3.80 0 4.66 -2.59 17.27 -53.54 6.39 -25.21 15.72 -61.83 20.90 -81.69 5.18 -19.69 9.33 -36.09 9.33 -36.44 0 -0.52 1.21 -2.07 2.76 -3.45 2.07 -2.25 6.91 -2.76 23.31 -2.76 19 0 20.72 0.35 19.86 3.11 -0.35 1.55 -5.87 20.03 -11.92 40.93 -6.22 20.90 -17.27 58.54 -24.52 83.76 -7.25 25.21 -18.13 61.31 -23.83 80.30 l-10.71 34.54 -0.86 61.31 -0.86 61.31 -19.34 0.52 c-17.79 0.35 -19.51 0.17 -21.07 -2.94z"/>
  <path d="M654 724.47 c-26.42 -7.25 -45.25 -23.49 -76.68 -66.14 -28.32 -38.34 -48.18 -59.41 -75.64 -79.96 -11.05 -8.46 -35.58 -23.49 -46.28 -28.50 -5.53 -2.59 -6.04 -3.45 -3.45 -4.32 4.66 -1.90 22.28 -1.73 35.06 0.17 34.71 5.53 69.25 25.04 96.88 55.09 11.74 12.61 17.44 20.55 47.32 66.66 15.54 24 34.71 44.04 49.56 51.81 7.60 3.97 9.33 5.35 6.91 6.39 -4.84 1.90 -24.87 1.21 -33.68 -1.21z"/>
 </g>
</svg>